<?xml version="1.0" encoding="UTF-8"?>
<svg width="512" height="512" version="1.1" viewBox="0 0 512 512" xmlns="http://www.w3.org/2000/svg">
 <defs>
  <style>.laend{fill:#ff0;}</style>
 </defs>
 <g data-name="Ebene 1">
  <g data-name="Layer 2"></g>
 </g>
 <g>
  <g transform="scale(2.8444)" data-name="Ebene 2">
   <rect class="laend" width="180" height="180"/>
  </g>
  <path d="m219.51 354.93c11.055-42.382 22.111-84.764 33.166-127.15 8.9597-3.0956 7.807 6.8521 9.9008 12.612 9.8221 38.178 19.644 76.356 29.466 114.53h-72.533zm-119.95 122.74h89.6c4.9209-19.134 9.8418-38.267 14.763-57.401h103.77c5.0536 19.134 10.107 38.267 15.161 57.401h89.6c0.28803-12.743-6.3324-24.466-9.0907-36.758-29.681-98.377-59.362-196.75-89.043-295.13h-116.62c-32.711 108.42-65.422 216.84-98.133 325.26v6.6276zm212.88-443.34c-24.605-1.5337-46.16 21.04-43.581 45.522-0.37982 24.886 24.372 43.535 48.205 40.092 26.359-0.75955 44.814-29.016 37.671-53.686-4.0805-19.285-23.02-32.451-42.295-31.928zm-113.78 0c-24.511-1.4582-45.691 21.239-43.155 45.522-0.37349 24.674 24.011 43.534 47.765 40.092 26.378-0.74268 45.337-28.841 38.111-53.686-4.1114-19.47-23.346-32.474-42.721-31.928z" stroke-width="2.8444"/>
 </g>
</svg>
